<svg id="Layer_1" data-name="Layer 1" xmlns="http://www.w3.org/2000/svg" viewBox="0 0 490.22 385.42"><defs><style>.cls-1{fill:#0d6b78;}.cls-2{fill:#0e7187;}.cls-3{fill:#3965b0;}.cls-4{fill:#f28221;}.cls-5{fill:#ed7823;}.cls-6{fill:#f68935;}.cls-7{fill:#0f7a89;}.cls-11,.cls-8{fill:none;}.cls-8{stroke:#000;stroke-miterlimit:10;}.cls-9{fill:#ffee93;}.cls-10{fill:#fce37e;}</style></defs><path class="cls-1" d="M467.77,323.15,244.84,385.42q93-98.9,186.07-197.78a402.5,402.5,0,0,1,24.82,67.66A401.72,401.72,0,0,1,467.77,323.15Z"/><path class="cls-2" d="M244.84,385.42,21.89,323.15A401.71,401.71,0,0,1,58.75,187.64Z"/><path class="cls-3" d="M243.67,358h0q-6.56-9.63-13.09-19.28l13.09,19.13v0S243.67,357.91,243.67,358Z"/><path class="cls-3" d="M430.91,187.64c-5.66-10-12.21-20.56-19.8-31.43-4.72-6.77-9.45-13.09-14.13-19,5.65,6.9,11.51,14.62,17.34,23.21C420.77,169.93,426.25,179.09,430.91,187.64Z"/><path class="cls-4" d="M245,162.89l-55-82c7.24-1.59,15.19-3,23.8-4a246.08,246.08,0,0,1,31-1.71Z"/><path class="cls-5" d="M245,162.89l55.29-80.64a237.68,237.68,0,0,0-25.88-4.94,235.1,235.1,0,0,0-29.6-2.11Z"/><path class="cls-4" d="M490.22,0,351.85,101.78A156.68,156.68,0,0,1,397,137.22Z"/><path class="cls-2" d="M490.22,0,430.91,187.64c-5.66-10-12.21-20.56-19.8-31.43-4.72-6.77-9.45-13.09-14.13-19Z"/><path class="cls-6" d="M0,.28,137.3,101.61a204.68,204.68,0,0,0-44.62,35.61Z"/><path class="cls-7" d="M0,.28,92.68,137.22C88,142.86,83.3,149,78.59,155.67a310.21,310.21,0,0,0-19.83,32Q29.38,94,0,.28Z"/><polyline class="cls-8" points="244.76 258.87 244.61 258.99 244.61 258.99 244.55 259.04"/><path class="cls-2" d="M245,162.89l-.44,96.17q-54-78.57-108-157.15a214,214,0,0,1,53.43-21Z"/><path class="cls-1" d="M245,163,244.58,259,351.85,101.8a138.9,138.9,0,0,0-51.53-19.55Z"/><path class="cls-5" d="M244.51,259.11q53.64-78.68,107.29-157.33h0A137.73,137.73,0,0,1,397,137.28Z"/><path class="cls-4" d="M244.58,259,137.26,101.59a132,132,0,0,0-45.33,35.29Z"/><path class="cls-9" d="M397,137.22,244.51,259.11l186.4-71.47A205.87,205.87,0,0,0,397,137.22Z"/><path class="cls-9" d="M91.93,136.87Q168.27,198,244.58,259.05L58.75,187.64a216,216,0,0,1,33.18-50.77Z"/><path class="cls-4" d="M58.75,187.64,244.84,385.42q-.14-63.18-.26-126.37Z"/><path class="cls-5" d="M430.91,187.64,244.84,385.42l-.25-126.36Z"/><path class="cls-10" d="M283.23,300.88l-38.39,84.54V259.27Z"/><path class="cls-9" d="M244.84,259.27V385.42q-19.49-41.57-39-83.14,19.39-21.61,38.77-43.25Z"/><line class="cls-11" x1="244.85" y1="75.2" x2="244.84" y2="259.27"/></svg>